<svg aria-hidden="true" style="position: absolute; width: 0; height: 0; overflow: hidden;" version="1.1" xmlns="http://www.w3.org/2000/svg" xmlns:xlink="http://www.w3.org/1999/xlink">
<defs>
<symbol id="icon-logo-spacex" viewBox="0 0 262 32">
<path fill="#fff" style="fill: var(--color1, #fff)" d="M60.593 11.608h-21.935l-0.786 0.619v19.144h6.034v-7.206l0.553-0.537h16.133c4.080 0 5.957-1.080 5.957-3.849v-4.402c0-2.693-1.877-3.768-5.957-3.768zM60.593 18.682c0 1.308-0.864 1.521-2.823 1.521h-13.206l-0.631-0.538v-4.057l0.553-0.538h13.325c1.882 0 2.823 0.228 2.823 1.521v2.074l-0.041 0.015z"></path>
<path fill="#fff" style="fill: var(--color1, #fff)" d="M77.698 15.223l5.254 7.536-0.315 0.695h-11.604l-2.978 3.611h17.25l1.251 0.695 2.668 3.611h6.976l-15.285-19.99z"></path>
<path fill="#fff" style="fill: var(--color1, #fff)" d="M146.926 27.526v-5.38l0.631-0.538h11.681v-3.382h-18.501v13.144h27.282v-3.382h-20.384z"></path>
<path fill="#fff" style="fill: var(--color1, #fff)" d="M168.256 11.613h-27.519v3.692h27.519v-3.692z"></path>
<path fill="#fff" style="fill: var(--color1, #fff)" d="M110.083 15.147h22.188c-0.315-2.769-2.12-3.55-6.51-3.55h-15.916c-5.016 0-6.588 0.923-6.588 4.691v10.467c0 3.692 1.551 4.691 6.588 4.691h15.9c4.468 0 6.205-0.847 6.35-3.692h-22.028l-0.631-0.613v-11.532z"></path>
<path fill="#fff" style="fill: var(--color1, #fff)" d="M22.974 19.296h-16.071l-0.471-0.538v-3.382l0.471-0.385h21.718l0.31-0.69c-0.703-1.846-2.663-2.769-6.205-2.769h-15.12c-5.016 0-6.583 0.923-6.583 4.691v2.231c0 3.687 1.551 4.691 6.583 4.691h16.076l0.471 0.461v3.55l-0.393 0.538h-23.207c0 0-0.553 0.309-0.553 0.385 0.393 2.617 2.198 3.307 6.51 3.307h16.464c5.016 0 6.665-0.923 6.665-4.691v-2.708c0-3.687-1.649-4.691-6.665-4.691z"></path>
<path fill="#fff" style="fill: var(--color1, #fff)" d="M185.583 11.532h-9.096l-0.471 0.923 10.037 7.226c1.882-1.075 3.996-2.15 6.204-3.23z"></path>
<path fill="#fff" style="fill: var(--color1, #fff)" d="M193.737 25.067l8.858 6.303h9.096l0.393-0.847-13.171-9.458c-1.728 1.308-3.531 2.617-5.171 4.001z"></path>
<path fill="#b2b0b2" style="fill: var(--color2, #b2b0b2)" d="M184.249 31.37h-8.232l-0.703-1.075c5.564-5.309 30.508-27.891 84.673-30.295 0 0-45.395 1.521-75.738 31.37z"></path>
</symbol>
</defs>
</svg>
